<svg xmlns="http://www.w3.org/2000/svg" >
<symbol id="tg" viewBox="0 0 24 24" fill="currentColor">
      <path fill-rule="evenodd" d="M12.59 16.594l-2.593 2.423s-.203.157-.425.059l.497-4.5.017.013.01-.092s7.272-6.697 7.57-6.982c.298-.285.198-.346.198-.346.02-.346-.536 0-.536 0l-9.636 6.27-4.013-1.384s-.616-.224-.676-.713c-.06-.488.696-.753.696-.753l15.953-6.412s1.312-.59 1.312.387L18.123 19.24s-.398 1.018-1.49.53l-4.043-3.176z"/>
</symbol>
<symbol id="cross" viewBox="0 0 32 32">
   <path d="M25 24L7 8 M7 24L25 8" stroke-width="3" stroke-linecap="round"/>
</symbol>
</svg>

<svg fill="#fff" xmlns="http://www.w3.org/2000/svg" width="24" height="24" viewBox="0 0 24 24">

</svg>

