<svg xmlns="http://www.w3.org/2000/svg" >

      <symbol id="tg" viewBox="0 0 24 24" fill="currentColor">
            <path d="M12.59 16.594l-2.593 2.423s-.203.157-.425.059l.497-4.5.017.013.01-.092s7.272-6.697 7.57-6.982c.298-.285.198-.346.198-.346.02-.346-.536 0-.536 0l-9.636 6.27-4.013-1.384s-.616-.224-.676-.713c-.06-.488.696-.753.696-.753l15.953-6.412s1.312-.59 1.312.387L18.123 19.24s-.398 1.018-1.49.53l-4.043-3.176z"/>
      </symbol>

      <symbol id="github" viewBox="0 0 16 16" fill="currentColor">
            <path d="M8 0C3.58 0 0 3.58 0 8c0 3.54 2.29 6.53 5.47 7.59.4.07.55-.17.55-.38 0-.19-.01-.82-.01-1.49-2.01.37-2.53-.49-2.69-.94-.09-.23-.48-.94-.82-1.13-.28-.15-.68-.52-.01-.53.63-.01 1.08.58 1.23.82.72 1.21 1.87.87 2.33.66.07-.52.28-.87.51-1.07-1.78-.2-3.64-.89-3.64-3.95 0-.87.31-1.59.82-2.15-.08-.2-.36-1.02.08-2.12 0 0 .67-.21 2.2.82.64-.18 1.32-.27 2-.27.68 0 1.36.09 2 .27 1.53-1.04 2.2-.82 2.2-.82.44 1.1.16 1.92.08 2.12.51.56.82 1.27.82 2.15 0 3.07-1.87 3.75-3.65 3.95.29.25.54.73.54 1.48 0 1.07-.01 1.93-.01 2.2 0 .21.15.46.55.38A8.012 8.012 0 0 0 16 8c0-4.42-3.58-8-8-8z"/>
      </symbol>

      <symbol id="vk" viewBox="0 0 50 50" fill="currentColor">
            <path d="M41,4H9C6.24,4,4,6.24,4,9v32c0,2.76,2.24,5,5,5h32c2.76,0,5-2.24,5-5V9C46,6.24,43.76,4,41,4z M37.72,33l-3.73-0.01c0,0-0.08,0.01-0.21,0.01c-0.3,0-0.92-0.08-1.65-0.58c-1.31-0.91-2.56-3.17-3.55-3.17c-0.07,0-0.13,0.01-0.19,0.03c-0.86,0.27-1.12,1.13-1.12,2.18c0,0.37-0.26,0.54-0.96,0.54h-1.93c-2.16,0-4.25-0.05-6.6-2.62c-3.46-3.79-6.7-10.53-6.7-10.53s-0.18-0.39,0.01-0.62c0.18-0.21,0.6-0.23,0.76-0.23c0.04,0,0.06,0,0.06,0h4c0,0,0.37,0.07,0.64,0.27c0.23,0.17,0.35,0.48,0.35,0.48s0.68,1.32,1.53,2.81c1.43,2.46,2.2,3.28,2.75,3.28c0.09,0,0.18-0.02,0.27-0.07c0.82-0.45,0.58-4.09,0.58-4.09s0.01-1.32-0.42-1.9c-0.33-0.46-0.96-0.59-1.24-0.63c-0.22-0.03,0.14-0.55,0.62-0.79c0.62-0.3,1.65-0.36,2.89-0.36h0.6c1.17,0.02,1.2,0.14,1.66,0.25c1.38,0.33,0.91,1.62,0.91,4.71c0,0.99-0.18,2.38,0.53,2.85c0.05,0.03,0.12,0.05,0.21,0.05c0.46,0,1.45-0.59,3.03-3.26c0.88-1.52,1.56-3.03,1.56-3.03s0.15-0.27,0.38-0.41c0.22-0.13,0.22-0.13,0.51-0.13h0.03c0.32,0,3.5-0.03,4.2-0.03h0.08c0.67,0,1.28,0.01,1.39,0.42c0.16,0.62-0.49,1.73-2.2,4.03c-2.82,3.77-3.14,3.49-0.8,5.67c2.24,2.08,2.7,3.09,2.78,3.22C39.68,32.88,37.72,33,37.72,33z"/>
      </symbol>

      <symbol id="discord" viewBox="0 0 16 16" fill="currentColor">
            <path d="M13.545 2.907a13.227 13.227 0 0 0-3.257-1.011.05.05 0 0 0-.052.025c-.141.25-.297.577-.406.833a12.19 12.19 0 0 0-3.658 0 8.258 8.258 0 0 0-.412-.833.051.051 0 0 0-.052-.025c-1.125.194-2.22.534-3.257 1.011a.041.041 0 0 0-.021.018C.356 6.024-.213 9.047.066 12.032c.001.014.01.028.021.037a13.276 13.276 0 0 0 3.995 2.02.05.05 0 0 0 .056-.019c.308-.42.582-.863.818-1.329a.05.05 0 0 0-.01-.059.051.051 0 0 0-.018-.011 8.875 8.875 0 0 1-1.248-.595.05.05 0 0 1-.02-.066.051.051 0 0 1 .015-.019c.084-.063.168-.129.248-.195a.05.05 0 0 1 .051-.007c2.619 1.196 5.454 1.196 8.041 0a.052.052 0 0 1 .053.007c.08.066.164.132.248.195a.051.051 0 0 1-.004.085 8.254 8.254 0 0 1-1.249.594.05.05 0 0 0-.03.03.052.052 0 0 0 .003.041c.24.465.515.909.817 1.329a.05.05 0 0 0 .056.019 13.235 13.235 0 0 0 4.001-2.02.049.049 0 0 0 .021-.037c.334-3.451-.559-6.449-2.366-9.106a.034.034 0 0 0-.02-.019Zm-8.198 7.307c-.789 0-1.438-.724-1.438-1.612 0-.889.637-1.613 1.438-1.613.807 0 1.45.73 1.438 1.613 0 .888-.637 1.612-1.438 1.612Zm5.316 0c-.788 0-1.438-.724-1.438-1.612 0-.889.637-1.613 1.438-1.613.807 0 1.451.73 1.438 1.613 0 .888-.631 1.612-1.438 1.612Z"/>
      </symbol>
</svg>

